<?xml version="1.0" encoding="UTF-8" standalone="no"?>
<!DOCTYPE svg PUBLIC "-//W3C//DTD SVG 1.1//EN"
 "http://www.w3.org/Graphics/SVG/1.1/DTD/svg11.dtd">
<!-- Generated by graphviz version 2.40.1 (0)
 -->
<!-- Title: flowchart Pages: 1 -->
<svg width="6042pt" height="535pt"
 viewBox="0.00 0.00 6041.96 535.40" xmlns="http://www.w3.org/2000/svg" xmlns:xlink="http://www.w3.org/1999/xlink">
<g id="graph0" class="graph" transform="scale(1 1) rotate(0) translate(4 531.4)">
<title>flowchart</title>
<polygon fill="#ffffff" stroke="transparent" points="-4,4 -4,-531.4 6037.955,-531.4 6037.955,4 -4,4"/>
<!-- v0 -->
<g id="node1" class="node">
<title>v0</title>
<ellipse fill="none" stroke="#000000" cx="194.9827" cy="-508.8" rx="194.9654" ry="18"/>
<text text-anchor="middle" x="194.9827" y="-505.1" font-family="Times,serif" font-size="14.00" fill="#000000">KINASE_DENDROGRAM:kinase_dendrogram_all</text>
</g>
<!-- v2 -->
<g id="node2" class="node">
<title>v2</title>
<ellipse fill="#000000" stroke="#000000" cx="182.9827" cy="-450.3" rx="1.8" ry="1.8"/>
</g>
<!-- v0&#45;&gt;v2 -->
<g id="edge1" class="edge">
<title>v0&#45;&gt;v2</title>
<path fill="none" stroke="#000000" d="M191.2516,-490.6109C189.36,-481.3893 187.1155,-470.4476 185.4426,-462.2923"/>
<polygon fill="#000000" stroke="#000000" points="188.8111,-461.2955 183.373,-452.2028 181.9539,-462.7022 188.8111,-461.2955"/>
</g>
<!-- v1 -->
<g id="node3" class="node">
<title>v1</title>
<ellipse fill="#000000" stroke="#000000" cx="207.9827" cy="-450.3" rx="1.8" ry="1.8"/>
</g>
<!-- v0&#45;&gt;v1 -->
<g id="edge2" class="edge">
<title>v0&#45;&gt;v1</title>
<path fill="none" stroke="#000000" d="M199.0247,-490.6109C201.0986,-481.2782 203.5641,-470.1837 205.383,-461.9987"/>
<polygon fill="#000000" stroke="#000000" points="208.8071,-462.724 207.5599,-452.2028 201.9738,-461.2054 208.8071,-462.724"/>
</g>
<!-- v3 -->
<g id="node4" class="node">
<title>v3</title>
<ellipse fill="none" stroke="#000000" cx="618.9827" cy="-508.8" rx="210.6627" ry="18"/>
<text text-anchor="middle" x="618.9827" y="-505.1" font-family="Times,serif" font-size="14.00" fill="#000000">KINASE_DENDROGRAM:kinase_dendrogram_ser_thr</text>
</g>
<!-- v5 -->
<g id="node5" class="node">
<title>v5</title>
<ellipse fill="#000000" stroke="#000000" cx="605.9827" cy="-450.3" rx="1.8" ry="1.8"/>
</g>
<!-- v3&#45;&gt;v5 -->
<g id="edge3" class="edge">
<title>v3&#45;&gt;v5</title>
<path fill="none" stroke="#000000" d="M614.9407,-490.6109C612.8667,-481.2782 610.4013,-470.1837 608.5824,-461.9987"/>
<polygon fill="#000000" stroke="#000000" points="611.9916,-461.2054 606.4055,-452.2028 605.1583,-462.724 611.9916,-461.2054"/>
</g>
<!-- v4 -->
<g id="node6" class="node">
<title>v4</title>
<ellipse fill="#000000" stroke="#000000" cx="630.9827" cy="-450.3" rx="1.8" ry="1.8"/>
</g>
<!-- v3&#45;&gt;v4 -->
<g id="edge4" class="edge">
<title>v3&#45;&gt;v4</title>
<path fill="none" stroke="#000000" d="M622.7138,-490.6109C624.6054,-481.3893 626.8499,-470.4476 628.5227,-462.2923"/>
<polygon fill="#000000" stroke="#000000" points="632.0115,-462.7022 630.5924,-452.2028 625.1543,-461.2955 632.0115,-462.7022"/>
</g>
<!-- v6 -->
<g id="node7" class="node">
<title>v6</title>
<ellipse fill="none" stroke="#000000" cx="1043.9827" cy="-508.8" rx="196.0654" ry="18"/>
<text text-anchor="middle" x="1043.9827" y="-505.1" font-family="Times,serif" font-size="14.00" fill="#000000">KINASE_DENDROGRAM:kinase_dendrogram_tyr</text>
</g>
<!-- v8 -->
<g id="node8" class="node">
<title>v8</title>
<ellipse fill="#000000" stroke="#000000" cx="1031.9827" cy="-450.3" rx="1.8" ry="1.8"/>
</g>
<!-- v6&#45;&gt;v8 -->
<g id="edge5" class="edge">
<title>v6&#45;&gt;v8</title>
<path fill="none" stroke="#000000" d="M1040.2516,-490.6109C1038.36,-481.3893 1036.1155,-470.4476 1034.4426,-462.2923"/>
<polygon fill="#000000" stroke="#000000" points="1037.8111,-461.2955 1032.373,-452.2028 1030.9539,-462.7022 1037.8111,-461.2955"/>
</g>
<!-- v7 -->
<g id="node9" class="node">
<title>v7</title>
<ellipse fill="#000000" stroke="#000000" cx="1056.9827" cy="-450.3" rx="1.8" ry="1.8"/>
</g>
<!-- v6&#45;&gt;v7 -->
<g id="edge6" class="edge">
<title>v6&#45;&gt;v7</title>
<path fill="none" stroke="#000000" d="M1048.0247,-490.6109C1050.0986,-481.2782 1052.5641,-470.1837 1054.383,-461.9987"/>
<polygon fill="#000000" stroke="#000000" points="1057.8071,-462.724 1056.5599,-452.2028 1050.9738,-461.2054 1057.8071,-462.724"/>
</g>
<!-- v9 -->
<g id="node10" class="node">
<title>v9</title>
<ellipse fill="none" stroke="#000000" cx="1463.9827" cy="-508.8" rx="205.2636" ry="18"/>
<text text-anchor="middle" x="1463.9827" y="-505.1" font-family="Times,serif" font-size="14.00" fill="#000000">KINASE_DENDROGRAM:go_terms_dendrogram_all</text>
</g>
<!-- v10 -->
<g id="node11" class="node">
<title>v10</title>
<ellipse fill="#000000" stroke="#000000" cx="1463.9827" cy="-450.3" rx="1.8" ry="1.8"/>
</g>
<!-- v9&#45;&gt;v10 -->
<g id="edge7" class="edge">
<title>v9&#45;&gt;v10</title>
<path fill="none" stroke="#000000" d="M1463.9827,-490.6109C1463.9827,-481.3893 1463.9827,-470.4476 1463.9827,-462.2923"/>
<polygon fill="#000000" stroke="#000000" points="1467.4828,-462.2028 1463.9827,-452.2028 1460.4828,-462.2028 1467.4828,-462.2028"/>
</g>
<!-- v11 -->
<g id="node12" class="node">
<title>v11</title>
<ellipse fill="none" stroke="#000000" cx="1907.9827" cy="-508.8" rx="220.9608" ry="18"/>
<text text-anchor="middle" x="1907.9827" y="-505.1" font-family="Times,serif" font-size="14.00" fill="#000000">KINASE_DENDROGRAM:go_terms_dendrogram_ser_thr</text>
</g>
<!-- v12 -->
<g id="node13" class="node">
<title>v12</title>
<ellipse fill="#000000" stroke="#000000" cx="1907.9827" cy="-450.3" rx="1.8" ry="1.8"/>
</g>
<!-- v11&#45;&gt;v12 -->
<g id="edge8" class="edge">
<title>v11&#45;&gt;v12</title>
<path fill="none" stroke="#000000" d="M1907.9827,-490.6109C1907.9827,-481.3893 1907.9827,-470.4476 1907.9827,-462.2923"/>
<polygon fill="#000000" stroke="#000000" points="1911.4828,-462.2028 1907.9827,-452.2028 1904.4828,-462.2028 1911.4828,-462.2028"/>
</g>
<!-- v13 -->
<g id="node14" class="node">
<title>v13</title>
<ellipse fill="none" stroke="#000000" cx="2352.9827" cy="-508.8" rx="206.0634" ry="18"/>
<text text-anchor="middle" x="2352.9827" y="-505.1" font-family="Times,serif" font-size="14.00" fill="#000000">KINASE_DENDROGRAM:go_terms_dendrogram_tyr</text>
</g>
<!-- v14 -->
<g id="node15" class="node">
<title>v14</title>
<ellipse fill="#000000" stroke="#000000" cx="2352.9827" cy="-450.3" rx="1.8" ry="1.8"/>
</g>
<!-- v13&#45;&gt;v14 -->
<g id="edge9" class="edge">
<title>v13&#45;&gt;v14</title>
<path fill="none" stroke="#000000" d="M2352.9827,-490.6109C2352.9827,-481.3893 2352.9827,-470.4476 2352.9827,-462.2923"/>
<polygon fill="#000000" stroke="#000000" points="2356.4828,-462.2028 2352.9827,-452.2028 2349.4828,-462.2028 2356.4828,-462.2028"/>
</g>
<!-- v15 -->
<g id="node16" class="node">
<title>v15</title>
<ellipse fill="#000000" stroke="#000000" cx="2514.9827" cy="-392.2" rx="3.6" ry="3.6"/>
<text text-anchor="middle" x="2461.3827" y="-399.6" font-family="Times,serif" font-size="14.00" fill="#000000">Channel.fromPath</text>
</g>
<!-- v21 -->
<g id="node17" class="node">
<title>v21</title>
<ellipse fill="none" stroke="#000000" cx="2555.9827" cy="-319.6" rx="3.5" ry="3.5"/>
<text text-anchor="middle" x="2528.4827" y="-326.9" font-family="Times,serif" font-size="14.00" fill="#000000">combine</text>
</g>
<!-- v15&#45;&gt;v21 -->
<g id="edge10" class="edge">
<title>v15&#45;&gt;v21</title>
<path fill="none" stroke="#000000" d="M2514.1795,-388.5588C2512.8617,-381.7275 2510.8656,-366.68 2515.9827,-355.6 2521.8512,-342.893 2534.5497,-332.7297 2544.0746,-326.4846"/>
<polygon fill="#000000" stroke="#000000" points="2545.9196,-329.4593 2552.6911,-321.3109 2542.3161,-323.458 2545.9196,-329.4593"/>
<text text-anchor="middle" x="2549.9827" y="-359.4" font-family="Times,serif" font-size="14.00" fill="#000000">k_p_pos_set</text>
</g>
<!-- v22 -->
<g id="node23" class="node">
<title>v22</title>
<ellipse fill="none" stroke="#000000" cx="2555.9827" cy="-232.6" rx="309.2452" ry="18"/>
<text text-anchor="middle" x="2555.9827" y="-228.9" font-family="Times,serif" font-size="14.00" fill="#000000">PERFORMANCE_PER_KIN_FAM_PSP:selphi_eval_classifier_w_random_neg_set</text>
</g>
<!-- v21&#45;&gt;v22 -->
<g id="edge16" class="edge">
<title>v21&#45;&gt;v22</title>
<path fill="none" stroke="#000000" d="M2555.9827,-315.8617C2555.9827,-306.445 2555.9827,-281.053 2555.9827,-260.7647"/>
<polygon fill="#000000" stroke="#000000" points="2559.4828,-260.7321 2555.9827,-250.7322 2552.4828,-260.7322 2559.4828,-260.7321"/>
<text text-anchor="middle" x="2592.9827" y="-272.4" font-family="Times,serif" font-size="14.00" fill="#000000">combined_ch</text>
</g>
<!-- v16 -->
<g id="node18" class="node">
<title>v16</title>
<ellipse fill="#000000" stroke="#000000" cx="2580.9827" cy="-508.8" rx="3.6" ry="3.6"/>
<text text-anchor="middle" x="2607.8827" y="-516.2" font-family="Times,serif" font-size="14.00" fill="#000000">Channel.of</text>
</g>
<!-- v17 -->
<g id="node19" class="node">
<title>v17</title>
<ellipse fill="none" stroke="#000000" cx="2580.9827" cy="-450.3" rx="3.5" ry="3.5"/>
<text text-anchor="middle" x="2560.4827" y="-457.6" font-family="Times,serif" font-size="14.00" fill="#000000">flatten</text>
</g>
<!-- v16&#45;&gt;v17 -->
<g id="edge11" class="edge">
<title>v16&#45;&gt;v17</title>
<path fill="none" stroke="#000000" d="M2580.9827,-504.9617C2580.9827,-496.7878 2580.9827,-477.3199 2580.9827,-463.9686"/>
<polygon fill="#000000" stroke="#000000" points="2584.4828,-463.9263 2580.9827,-453.9263 2577.4828,-463.9263 2584.4828,-463.9263"/>
</g>
<!-- v20 -->
<g id="node20" class="node">
<title>v20</title>
<ellipse fill="none" stroke="#000000" cx="2597.9827" cy="-392.2" rx="3.5" ry="3.5"/>
<text text-anchor="middle" x="2570.4827" y="-399.5" font-family="Times,serif" font-size="14.00" fill="#000000">combine</text>
</g>
<!-- v17&#45;&gt;v20 -->
<g id="edge12" class="edge">
<title>v17&#45;&gt;v20</title>
<path fill="none" stroke="#000000" d="M2580.3941,-446.754C2579.434,-440.0836 2578.0103,-425.3047 2581.9827,-413.8 2583.3964,-409.7059 2585.888,-405.7412 2588.4903,-402.3503"/>
<polygon fill="#000000" stroke="#000000" points="2591.2815,-404.4787 2595.3144,-394.6814 2586.0521,-399.8253 2591.2815,-404.4787"/>
<text text-anchor="middle" x="2587.4827" y="-417.6" font-family="Times,serif" font-size="14.00" fill="#000000">id</text>
</g>
<!-- v20&#45;&gt;v21 -->
<g id="edge15" class="edge">
<title>v20&#45;&gt;v21</title>
<path fill="none" stroke="#000000" d="M2596.9976,-388.6149C2595.0642,-381.8772 2590.3957,-366.9794 2583.9827,-355.6 2578.7445,-346.3051 2571.263,-336.821 2565.3511,-329.9221"/>
<polygon fill="#000000" stroke="#000000" points="2567.8893,-327.5097 2558.6204,-322.3776 2562.6658,-332.1697 2567.8893,-327.5097"/>
</g>
<!-- v18 -->
<g id="node21" class="node">
<title>v18</title>
<ellipse fill="#000000" stroke="#000000" cx="2614.9827" cy="-508.8" rx="3.6" ry="3.6"/>
<text text-anchor="middle" x="2641.8827" y="-494" font-family="Times,serif" font-size="14.00" fill="#000000">Channel.of</text>
</g>
<!-- v19 -->
<g id="node22" class="node">
<title>v19</title>
<ellipse fill="none" stroke="#000000" cx="2614.9827" cy="-450.3" rx="3.5" ry="3.5"/>
<text text-anchor="middle" x="2594.4827" y="-457.6" font-family="Times,serif" font-size="14.00" fill="#000000">flatten</text>
</g>
<!-- v18&#45;&gt;v19 -->
<g id="edge13" class="edge">
<title>v18&#45;&gt;v19</title>
<path fill="none" stroke="#000000" d="M2614.9827,-504.9617C2614.9827,-496.7878 2614.9827,-477.3199 2614.9827,-463.9686"/>
<polygon fill="#000000" stroke="#000000" points="2618.4828,-463.9263 2614.9827,-453.9263 2611.4828,-463.9263 2618.4828,-463.9263"/>
</g>
<!-- v19&#45;&gt;v20 -->
<g id="edge14" class="edge">
<title>v19&#45;&gt;v20</title>
<path fill="none" stroke="#000000" d="M2613.9702,-446.8396C2611.6261,-438.8283 2605.726,-418.6639 2601.7869,-405.2013"/>
<polygon fill="#000000" stroke="#000000" points="2605.1361,-404.1842 2598.9686,-395.5695 2598.4178,-406.15 2605.1361,-404.1842"/>
<text text-anchor="middle" x="2631.9827" y="-417.6" font-family="Times,serif" font-size="14.00" fill="#000000">kin_fam</text>
</g>
<!-- v23 -->
<g id="node24" class="node">
<title>v23</title>
<ellipse fill="none" stroke="#000000" cx="2249.9827" cy="-145.6" rx="3.5" ry="3.5"/>
<text text-anchor="middle" x="2215.4827" y="-152.9" font-family="Times,serif" font-size="14.00" fill="#000000">groupTuple</text>
</g>
<!-- v22&#45;&gt;v23 -->
<g id="edge17" class="edge">
<title>v22&#45;&gt;v23</title>
<path fill="none" stroke="#000000" d="M2493.6902,-214.8894C2420.0519,-193.953 2302.539,-160.5425 2263.2572,-149.3741"/>
<polygon fill="#000000" stroke="#000000" points="2264.1348,-145.985 2253.5588,-146.6167 2262.2205,-152.7182 2264.1348,-145.985"/>
</g>
<!-- v24 -->
<g id="node25" class="node">
<title>v24</title>
<ellipse fill="none" stroke="#000000" cx="2477.9827" cy="-145.6" rx="3.5" ry="3.5"/>
<text text-anchor="middle" x="2443.4827" y="-152.9" font-family="Times,serif" font-size="14.00" fill="#000000">groupTuple</text>
</g>
<!-- v22&#45;&gt;v24 -->
<g id="edge18" class="edge">
<title>v22&#45;&gt;v24</title>
<path fill="none" stroke="#000000" d="M2548.8354,-214.321C2544.203,-203.978 2537.453,-191.228 2528.9827,-181.6 2517.9226,-169.0282 2501.6366,-158.5186 2490.4609,-152.1612"/>
<polygon fill="#000000" stroke="#000000" points="2491.8354,-148.9261 2481.3716,-147.2651 2488.5158,-155.0889 2491.8354,-148.9261"/>
</g>
<!-- v25 -->
<g id="node26" class="node">
<title>v25</title>
<ellipse fill="none" stroke="#000000" cx="2567.9827" cy="-145.6" rx="3.5" ry="3.5"/>
<text text-anchor="middle" x="2533.4827" y="-152.9" font-family="Times,serif" font-size="14.00" fill="#000000">groupTuple</text>
</g>
<!-- v22&#45;&gt;v25 -->
<g id="edge19" class="edge">
<title>v22&#45;&gt;v25</title>
<path fill="none" stroke="#000000" d="M2558.4691,-214.5735C2560.7431,-198.0868 2564.0568,-174.0625 2566.1131,-159.1548"/>
<polygon fill="#000000" stroke="#000000" points="2569.5949,-159.5265 2567.4941,-149.142 2562.6605,-158.57 2569.5949,-159.5265"/>
</g>
<!-- v26 -->
<g id="node27" class="node">
<title>v26</title>
<ellipse fill="none" stroke="#000000" cx="2973.9827" cy="-145.6" rx="3.5" ry="3.5"/>
<text text-anchor="middle" x="2939.4827" y="-152.9" font-family="Times,serif" font-size="14.00" fill="#000000">groupTuple</text>
</g>
<!-- v22&#45;&gt;v26 -->
<g id="edge20" class="edge">
<title>v22&#45;&gt;v26</title>
<path fill="none" stroke="#000000" d="M2639.3161,-215.2555C2742.7297,-193.7316 2911.4331,-158.6187 2960.3134,-148.445"/>
<polygon fill="#000000" stroke="#000000" points="2961.1553,-151.8449 2970.2323,-146.3806 2959.7289,-144.9918 2961.1553,-151.8449"/>
</g>
<!-- v31 -->
<g id="node28" class="node">
<title>v31</title>
<ellipse fill="none" stroke="#000000" cx="1857.9827" cy="-58.6" rx="270.2521" ry="18"/>
<text text-anchor="middle" x="1857.9827" y="-54.9" font-family="Times,serif" font-size="14.00" fill="#000000">PERFORMANCE_PER_KIN_FAM_PSP:draw_roc_curves_per_kin_fam</text>
</g>
<!-- v23&#45;&gt;v31 -->
<g id="edge21" class="edge">
<title>v23&#45;&gt;v31</title>
<path fill="none" stroke="#000000" d="M2246.1029,-144.7389C2218.6415,-138.6442 2051.6361,-101.5792 1945.8346,-78.0977"/>
<polygon fill="#000000" stroke="#000000" points="1946.3143,-74.6191 1935.7935,-75.8692 1944.7976,-81.4528 1946.3143,-74.6191"/>
<text text-anchor="middle" x="2089.4827" y="-98.4" font-family="Times,serif" font-size="14.00" fill="#000000">rocs</text>
</g>
<!-- v33 -->
<g id="node29" class="node">
<title>v33</title>
<ellipse fill="none" stroke="#000000" cx="2412.9827" cy="-58.6" rx="266.4527" ry="18"/>
<text text-anchor="middle" x="2412.9827" y="-54.9" font-family="Times,serif" font-size="14.00" fill="#000000">PERFORMANCE_PER_KIN_FAM_PSP:draw_pr_curves_per_kin_fam</text>
</g>
<!-- v24&#45;&gt;v33 -->
<g id="edge22" class="edge">
<title>v24&#45;&gt;v33</title>
<path fill="none" stroke="#000000" d="M2475.82,-142.7054C2469.1692,-133.8035 2448.5115,-106.1539 2432.679,-84.9628"/>
<polygon fill="#000000" stroke="#000000" points="2435.4624,-82.8404 2426.6732,-76.9242 2429.8547,-87.0302 2435.4624,-82.8404"/>
<text text-anchor="middle" x="2458.4827" y="-98.4" font-family="Times,serif" font-size="14.00" fill="#000000">prs</text>
</g>
<!-- v27 -->
<g id="node30" class="node">
<title>v27</title>
<ellipse fill="none" stroke="#000000" cx="2942.9827" cy="-58.6" rx="245.0565" ry="18"/>
<text text-anchor="middle" x="2942.9827" y="-54.9" font-family="Times,serif" font-size="14.00" fill="#000000">PERFORMANCE_PER_KIN_FAM_PSP:average_auroc_kin_fam</text>
</g>
<!-- v25&#45;&gt;v27 -->
<g id="edge23" class="edge">
<title>v25&#45;&gt;v27</title>
<path fill="none" stroke="#000000" d="M2571.6942,-144.7389C2597.975,-138.6418 2757.8532,-101.5501 2859.06,-78.0701"/>
<polygon fill="#000000" stroke="#000000" points="2860.018,-81.4409 2868.9682,-75.7714 2858.4359,-74.622 2860.018,-81.4409"/>
<text text-anchor="middle" x="2795.9827" y="-98.4" font-family="Times,serif" font-size="14.00" fill="#000000">aurocs</text>
</g>
<!-- v29 -->
<g id="node31" class="node">
<title>v29</title>
<ellipse fill="none" stroke="#000000" cx="3446.9827" cy="-58.6" rx="241.2573" ry="18"/>
<text text-anchor="middle" x="3446.9827" y="-54.9" font-family="Times,serif" font-size="14.00" fill="#000000">PERFORMANCE_PER_KIN_FAM_PSP:average_aupr_kin_fam</text>
</g>
<!-- v26&#45;&gt;v29 -->
<g id="edge24" class="edge">
<title>v26&#45;&gt;v29</title>
<path fill="none" stroke="#000000" d="M2977.518,-144.9497C3007.2411,-139.4827 3217.5218,-100.8053 3346.3661,-77.1066"/>
<polygon fill="#000000" stroke="#000000" points="3347.0638,-80.5371 3356.2657,-75.2858 3345.7975,-73.6526 3347.0638,-80.5371"/>
<text text-anchor="middle" x="3253.9827" y="-98.4" font-family="Times,serif" font-size="14.00" fill="#000000">auprs</text>
</g>
<!-- v32 -->
<g id="node34" class="node">
<title>v32</title>
<ellipse fill="#000000" stroke="#000000" cx="1857.9827" cy="-1.8" rx="1.8" ry="1.8"/>
</g>
<!-- v31&#45;&gt;v32 -->
<g id="edge27" class="edge">
<title>v31&#45;&gt;v32</title>
<path fill="none" stroke="#000000" d="M1857.9827,-40.3155C1857.9827,-31.6139 1857.9827,-21.4551 1857.9827,-13.756"/>
<polygon fill="#000000" stroke="#000000" points="1861.4828,-13.6036 1857.9827,-3.6036 1854.4828,-13.6037 1861.4828,-13.6036"/>
</g>
<!-- v34 -->
<g id="node35" class="node">
<title>v34</title>
<ellipse fill="#000000" stroke="#000000" cx="2412.9827" cy="-1.8" rx="1.8" ry="1.8"/>
</g>
<!-- v33&#45;&gt;v34 -->
<g id="edge28" class="edge">
<title>v33&#45;&gt;v34</title>
<path fill="none" stroke="#000000" d="M2412.9827,-40.3155C2412.9827,-31.6139 2412.9827,-21.4551 2412.9827,-13.756"/>
<polygon fill="#000000" stroke="#000000" points="2416.4828,-13.6036 2412.9827,-3.6036 2409.4828,-13.6037 2416.4828,-13.6036"/>
</g>
<!-- v28 -->
<g id="node32" class="node">
<title>v28</title>
<ellipse fill="#000000" stroke="#000000" cx="2942.9827" cy="-1.8" rx="1.8" ry="1.8"/>
</g>
<!-- v27&#45;&gt;v28 -->
<g id="edge25" class="edge">
<title>v27&#45;&gt;v28</title>
<path fill="none" stroke="#000000" d="M2942.9827,-40.3155C2942.9827,-31.6139 2942.9827,-21.4551 2942.9827,-13.756"/>
<polygon fill="#000000" stroke="#000000" points="2946.4828,-13.6036 2942.9827,-3.6036 2939.4828,-13.6037 2946.4828,-13.6036"/>
</g>
<!-- v30 -->
<g id="node33" class="node">
<title>v30</title>
<ellipse fill="#000000" stroke="#000000" cx="3446.9827" cy="-1.8" rx="1.8" ry="1.8"/>
</g>
<!-- v29&#45;&gt;v30 -->
<g id="edge26" class="edge">
<title>v29&#45;&gt;v30</title>
<path fill="none" stroke="#000000" d="M3446.9827,-40.3155C3446.9827,-31.6139 3446.9827,-21.4551 3446.9827,-13.756"/>
<polygon fill="#000000" stroke="#000000" points="3450.4828,-13.6036 3446.9827,-3.6036 3443.4828,-13.6037 3450.4828,-13.6036"/>
</g>
<!-- v35 -->
<g id="node36" class="node">
<title>v35</title>
<ellipse fill="#000000" stroke="#000000" cx="4726.9827" cy="-508.8" rx="3.6" ry="3.6"/>
<text text-anchor="middle" x="4692.8827" y="-516.2" font-family="Times,serif" font-size="14.00" fill="#000000">Channel.of</text>
</g>
<!-- v36 -->
<g id="node37" class="node">
<title>v36</title>
<ellipse fill="none" stroke="#000000" cx="4726.9827" cy="-450.3" rx="3.5" ry="3.5"/>
<text text-anchor="middle" x="4706.4827" y="-457.6" font-family="Times,serif" font-size="14.00" fill="#000000">flatten</text>
</g>
<!-- v35&#45;&gt;v36 -->
<g id="edge29" class="edge">
<title>v35&#45;&gt;v36</title>
<path fill="none" stroke="#000000" d="M4726.9827,-504.9617C4726.9827,-496.7878 4726.9827,-477.3199 4726.9827,-463.9686"/>
<polygon fill="#000000" stroke="#000000" points="4730.4828,-463.9263 4726.9827,-453.9263 4723.4828,-463.9263 4730.4828,-463.9263"/>
</g>
<!-- v39 -->
<g id="node38" class="node">
<title>v39</title>
<ellipse fill="none" stroke="#000000" cx="4743.9827" cy="-392.2" rx="3.5" ry="3.5"/>
<text text-anchor="middle" x="4716.4827" y="-399.5" font-family="Times,serif" font-size="14.00" fill="#000000">combine</text>
</g>
<!-- v36&#45;&gt;v39 -->
<g id="edge30" class="edge">
<title>v36&#45;&gt;v39</title>
<path fill="none" stroke="#000000" d="M4726.3941,-446.754C4725.434,-440.0836 4724.0103,-425.3047 4727.9827,-413.8 4729.3964,-409.7059 4731.888,-405.7412 4734.4903,-402.3503"/>
<polygon fill="#000000" stroke="#000000" points="4737.2815,-404.4787 4741.3144,-394.6814 4732.0521,-399.8253 4737.2815,-404.4787"/>
<text text-anchor="middle" x="4733.4827" y="-417.6" font-family="Times,serif" font-size="14.00" fill="#000000">id</text>
</g>
<!-- v40 -->
<g id="node41" class="node">
<title>v40</title>
<ellipse fill="none" stroke="#000000" cx="4743.9827" cy="-319.6" rx="379.6327" ry="18"/>
<text text-anchor="middle" x="4743.9827" y="-315.9" font-family="Times,serif" font-size="14.00" fill="#000000">PERFORMANCE_PER_KIN_FAM_SUGIYAMA:selphi_eval_classifier_w_sugiyama_random_neg_set</text>
</g>
<!-- v39&#45;&gt;v40 -->
<g id="edge33" class="edge">
<title>v39&#45;&gt;v40</title>
<path fill="none" stroke="#000000" d="M4743.9827,-388.6984C4743.9827,-381.334 4743.9827,-363.6304 4743.9827,-347.9875"/>
<polygon fill="#000000" stroke="#000000" points="4747.4828,-347.6393 4743.9827,-337.6393 4740.4828,-347.6394 4747.4828,-347.6393"/>
<text text-anchor="middle" x="4780.9827" y="-359.4" font-family="Times,serif" font-size="14.00" fill="#000000">combined_ch</text>
</g>
<!-- v37 -->
<g id="node39" class="node">
<title>v37</title>
<ellipse fill="#000000" stroke="#000000" cx="4760.9827" cy="-508.8" rx="3.6" ry="3.6"/>
<text text-anchor="middle" x="4726.8827" y="-494" font-family="Times,serif" font-size="14.00" fill="#000000">Channel.of</text>
</g>
<!-- v38 -->
<g id="node40" class="node">
<title>v38</title>
<ellipse fill="none" stroke="#000000" cx="4760.9827" cy="-450.3" rx="3.5" ry="3.5"/>
<text text-anchor="middle" x="4740.4827" y="-457.6" font-family="Times,serif" font-size="14.00" fill="#000000">flatten</text>
</g>
<!-- v37&#45;&gt;v38 -->
<g id="edge31" class="edge">
<title>v37&#45;&gt;v38</title>
<path fill="none" stroke="#000000" d="M4760.9827,-504.9617C4760.9827,-496.7878 4760.9827,-477.3199 4760.9827,-463.9686"/>
<polygon fill="#000000" stroke="#000000" points="4764.4828,-463.9263 4760.9827,-453.9263 4757.4828,-463.9263 4764.4828,-463.9263"/>
</g>
<!-- v38&#45;&gt;v39 -->
<g id="edge32" class="edge">
<title>v38&#45;&gt;v39</title>
<path fill="none" stroke="#000000" d="M4759.9702,-446.8396C4757.6261,-438.8283 4751.726,-418.6639 4747.7869,-405.2013"/>
<polygon fill="#000000" stroke="#000000" points="4751.1361,-404.1842 4744.9686,-395.5695 4744.4178,-406.15 4751.1361,-404.1842"/>
<text text-anchor="middle" x="4776.9827" y="-417.6" font-family="Times,serif" font-size="14.00" fill="#000000">kin_fam</text>
</g>
<!-- v41 -->
<g id="node42" class="node">
<title>v41</title>
<ellipse fill="none" stroke="#000000" cx="4205.9827" cy="-232.6" rx="3.5" ry="3.5"/>
<text text-anchor="middle" x="4171.4827" y="-239.9" font-family="Times,serif" font-size="14.00" fill="#000000">groupTuple</text>
</g>
<!-- v40&#45;&gt;v41 -->
<g id="edge34" class="edge">
<title>v40&#45;&gt;v41</title>
<path fill="none" stroke="#000000" d="M4637.048,-302.3076C4500.8691,-280.2861 4276.3454,-243.9784 4219.4235,-234.7735"/>
<polygon fill="#000000" stroke="#000000" points="4219.9257,-231.3093 4209.4951,-233.168 4218.8081,-238.2196 4219.9257,-231.3093"/>
</g>
<!-- v42 -->
<g id="node43" class="node">
<title>v42</title>
<ellipse fill="none" stroke="#000000" cx="4569.9827" cy="-232.6" rx="3.5" ry="3.5"/>
<text text-anchor="middle" x="4535.4827" y="-239.9" font-family="Times,serif" font-size="14.00" fill="#000000">groupTuple</text>
</g>
<!-- v40&#45;&gt;v42 -->
<g id="edge35" class="edge">
<title>v40&#45;&gt;v42</title>
<path fill="none" stroke="#000000" d="M4707.9298,-301.5735C4668.7365,-281.9769 4608.2443,-251.7308 4582.3896,-238.8034"/>
<polygon fill="#000000" stroke="#000000" points="4583.8778,-235.6345 4573.3683,-234.2928 4580.7473,-241.8955 4583.8778,-235.6345"/>
</g>
<!-- v43 -->
<g id="node44" class="node">
<title>v43</title>
<ellipse fill="none" stroke="#000000" cx="4877.9827" cy="-232.6" rx="3.5" ry="3.5"/>
<text text-anchor="middle" x="4843.4827" y="-239.9" font-family="Times,serif" font-size="14.00" fill="#000000">groupTuple</text>
</g>
<!-- v40&#45;&gt;v43 -->
<g id="edge36" class="edge">
<title>v40&#45;&gt;v43</title>
<path fill="none" stroke="#000000" d="M4771.7476,-301.5735C4800.993,-282.5858 4845.6376,-253.6002 4866.4959,-240.0578"/>
<polygon fill="#000000" stroke="#000000" points="4868.5464,-242.8996 4875.0277,-234.5185 4864.7345,-237.0285 4868.5464,-242.8996"/>
</g>
<!-- v44 -->
<g id="node45" class="node">
<title>v44</title>
<ellipse fill="none" stroke="#000000" cx="5144.9827" cy="-232.6" rx="3.5" ry="3.5"/>
<text text-anchor="middle" x="5110.4827" y="-239.9" font-family="Times,serif" font-size="14.00" fill="#000000">groupTuple</text>
</g>
<!-- v40&#45;&gt;v44 -->
<g id="edge37" class="edge">
<title>v40&#45;&gt;v44</title>
<path fill="none" stroke="#000000" d="M4825.131,-301.9943C4924.0783,-280.5269 5083.9991,-245.8309 5131.3558,-235.5565"/>
<polygon fill="#000000" stroke="#000000" points="5132.3784,-238.9161 5141.409,-233.3753 5130.8942,-232.0752 5132.3784,-238.9161"/>
</g>
<!-- v49 -->
<g id="node46" class="node">
<title>v49</title>
<ellipse fill="none" stroke="#000000" cx="3707.9827" cy="-145.6" rx="341.4396" ry="18"/>
<text text-anchor="middle" x="3707.9827" y="-141.9" font-family="Times,serif" font-size="14.00" fill="#000000">PERFORMANCE_PER_KIN_FAM_SUGIYAMA:draw_roc_curves_per_kin_fam_sugiyama</text>
</g>
<!-- v41&#45;&gt;v49 -->
<g id="edge38" class="edge">
<title>v41&#45;&gt;v49</title>
<path fill="none" stroke="#000000" d="M4202.2605,-231.9497C4171.1956,-226.5227 3952.8037,-188.3699 3816.9109,-164.6296"/>
<polygon fill="#000000" stroke="#000000" points="3817.3211,-161.1484 3806.868,-162.8751 3816.1164,-168.0439 3817.3211,-161.1484"/>
<text text-anchor="middle" x="3998.4827" y="-185.4" font-family="Times,serif" font-size="14.00" fill="#000000">rocs</text>
</g>
<!-- v51 -->
<g id="node47" class="node">
<title>v51</title>
<ellipse fill="none" stroke="#000000" cx="4404.9827" cy="-145.6" rx="337.1402" ry="18"/>
<text text-anchor="middle" x="4404.9827" y="-141.9" font-family="Times,serif" font-size="14.00" fill="#000000">PERFORMANCE_PER_KIN_FAM_SUGIYAMA:draw_pr_curves_per_kin_fam_sugiyama</text>
</g>
<!-- v42&#45;&gt;v51 -->
<g id="edge39" class="edge">
<title>v42&#45;&gt;v51</title>
<path fill="none" stroke="#000000" d="M4566.8339,-230.9397C4552.3478,-223.3016 4490.9888,-190.9487 4448.1316,-168.3512"/>
<polygon fill="#000000" stroke="#000000" points="4449.5004,-165.1163 4439.0223,-163.5481 4446.2355,-171.3083 4449.5004,-165.1163"/>
<text text-anchor="middle" x="4506.4827" y="-185.4" font-family="Times,serif" font-size="14.00" fill="#000000">prs</text>
</g>
<!-- v45 -->
<g id="node48" class="node">
<title>v45</title>
<ellipse fill="none" stroke="#000000" cx="5075.9827" cy="-145.6" rx="315.744" ry="18"/>
<text text-anchor="middle" x="5075.9827" y="-141.9" font-family="Times,serif" font-size="14.00" fill="#000000">PERFORMANCE_PER_KIN_FAM_SUGIYAMA:average_auroc_kin_fam_sugiyama</text>
</g>
<!-- v43&#45;&gt;v45 -->
<g id="edge40" class="edge">
<title>v43&#45;&gt;v45</title>
<path fill="none" stroke="#000000" d="M4881.4194,-231.09C4898.3395,-223.6553 4974.0591,-190.3846 5025.8913,-167.6098"/>
<polygon fill="#000000" stroke="#000000" points="5027.5248,-170.7152 5035.272,-163.488 5024.7088,-164.3065 5027.5248,-170.7152"/>
<text text-anchor="middle" x="5005.9827" y="-185.4" font-family="Times,serif" font-size="14.00" fill="#000000">aurocs</text>
</g>
<!-- v47 -->
<g id="node49" class="node">
<title>v47</title>
<ellipse fill="none" stroke="#000000" cx="5721.9827" cy="-145.6" rx="311.9446" ry="18"/>
<text text-anchor="middle" x="5721.9827" y="-141.9" font-family="Times,serif" font-size="14.00" fill="#000000">PERFORMANCE_PER_KIN_FAM_SUGIYAMA:average_aupr_kin_fam_sugiyama</text>
</g>
<!-- v44&#45;&gt;v47 -->
<g id="edge41" class="edge">
<title>v44&#45;&gt;v47</title>
<path fill="none" stroke="#000000" d="M5148.6673,-232.0444C5182.5244,-226.9395 5441.8728,-187.8349 5599.9255,-164.0038"/>
<polygon fill="#000000" stroke="#000000" points="5600.8199,-167.4086 5610.1862,-162.4567 5599.7761,-160.4868 5600.8199,-167.4086"/>
<text text-anchor="middle" x="5482.9827" y="-185.4" font-family="Times,serif" font-size="14.00" fill="#000000">auprs</text>
</g>
<!-- v50 -->
<g id="node52" class="node">
<title>v50</title>
<ellipse fill="#000000" stroke="#000000" cx="3707.9827" cy="-58.6" rx="1.8" ry="1.8"/>
</g>
<!-- v49&#45;&gt;v50 -->
<g id="edge44" class="edge">
<title>v49&#45;&gt;v50</title>
<path fill="none" stroke="#000000" d="M3707.9827,-127.5735C3707.9827,-110.502 3707.9827,-85.3487 3707.9827,-70.6035"/>
<polygon fill="#000000" stroke="#000000" points="3711.4828,-70.5185 3707.9827,-60.5185 3704.4828,-70.5185 3711.4828,-70.5185"/>
</g>
<!-- v52 -->
<g id="node53" class="node">
<title>v52</title>
<ellipse fill="#000000" stroke="#000000" cx="4404.9827" cy="-58.6" rx="1.8" ry="1.8"/>
</g>
<!-- v51&#45;&gt;v52 -->
<g id="edge45" class="edge">
<title>v51&#45;&gt;v52</title>
<path fill="none" stroke="#000000" d="M4404.9827,-127.5735C4404.9827,-110.502 4404.9827,-85.3487 4404.9827,-70.6035"/>
<polygon fill="#000000" stroke="#000000" points="4408.4828,-70.5185 4404.9827,-60.5185 4401.4828,-70.5185 4408.4828,-70.5185"/>
</g>
<!-- v46 -->
<g id="node50" class="node">
<title>v46</title>
<ellipse fill="#000000" stroke="#000000" cx="5075.9827" cy="-58.6" rx="1.8" ry="1.8"/>
</g>
<!-- v45&#45;&gt;v46 -->
<g id="edge42" class="edge">
<title>v45&#45;&gt;v46</title>
<path fill="none" stroke="#000000" d="M5075.9827,-127.5735C5075.9827,-110.502 5075.9827,-85.3487 5075.9827,-70.6035"/>
<polygon fill="#000000" stroke="#000000" points="5079.4828,-70.5185 5075.9827,-60.5185 5072.4828,-70.5185 5079.4828,-70.5185"/>
</g>
<!-- v48 -->
<g id="node51" class="node">
<title>v48</title>
<ellipse fill="#000000" stroke="#000000" cx="5721.9827" cy="-58.6" rx="1.8" ry="1.8"/>
</g>
<!-- v47&#45;&gt;v48 -->
<g id="edge43" class="edge">
<title>v47&#45;&gt;v48</title>
<path fill="none" stroke="#000000" d="M5721.9827,-127.5735C5721.9827,-110.502 5721.9827,-85.3487 5721.9827,-70.6035"/>
<polygon fill="#000000" stroke="#000000" points="5725.4828,-70.5185 5721.9827,-60.5185 5718.4828,-70.5185 5725.4828,-70.5185"/>
</g>
</g>
</svg>
