<?xml version="1.0" encoding="UTF-8" standalone="no"?>
<!DOCTYPE svg PUBLIC "-//W3C//DTD SVG 1.1//EN"
 "http://www.w3.org/Graphics/SVG/1.1/DTD/svg11.dtd">
<!-- Generated by graphviz version 2.40.1 (0)
 -->
<!-- Title: flowchart Pages: 1 -->
<svg width="1468pt" height="710pt"
 viewBox="0.00 0.00 1468.16 709.80" xmlns="http://www.w3.org/2000/svg" xmlns:xlink="http://www.w3.org/1999/xlink">
<g id="graph0" class="graph" transform="scale(1 1) rotate(0) translate(4 705.8)">
<title>flowchart</title>
<polygon fill="#ffffff" stroke="transparent" points="-4,4 -4,-705.8 1464.1638,-705.8 1464.1638,4 -4,4"/>
<!-- v0 -->
<g id="node1" class="node">
<title>v0</title>
<ellipse fill="#000000" stroke="#000000" cx="434.1286" cy="-494.2" rx="3.6" ry="3.6"/>
<text text-anchor="middle" x="380.5286" y="-501.6" font-family="Times,serif" font-size="14.00" fill="#000000">Channel.fromPath</text>
</g>
<!-- v7 -->
<g id="node2" class="node">
<title>v7</title>
<ellipse fill="none" stroke="#000000" cx="453.1286" cy="-436.1" rx="3.5" ry="3.5"/>
<text text-anchor="middle" x="425.6286" y="-443.4" font-family="Times,serif" font-size="14.00" fill="#000000">combine</text>
</g>
<!-- v0&#45;&gt;v7 -->
<g id="edge1" class="edge">
<title>v0&#45;&gt;v7</title>
<path fill="none" stroke="#000000" d="M433.4741,-490.6212C432.4041,-483.8939 430.8045,-469.0129 435.1286,-457.6 436.7779,-453.2469 439.7066,-449.146 442.7287,-445.7163"/>
<polygon fill="#000000" stroke="#000000" points="445.4187,-447.9817 450.1321,-438.493 440.5303,-442.9713 445.4187,-447.9817"/>
<text text-anchor="middle" x="495.6286" y="-461.4" font-family="Times,serif" font-size="14.00" fill="#000000">ser_thr_pssm_dict_h5</text>
</g>
<!-- v8 -->
<g id="node10" class="node">
<title>v8</title>
<ellipse fill="none" stroke="#000000" cx="453.1286" cy="-363.6" rx="309.2452" ry="18"/>
<text text-anchor="middle" x="453.1286" y="-359.9" font-family="Times,serif" font-size="14.00" fill="#000000">SER_THR_PSSM_SCORES_FROM_SEQ:compute_ser_thr_pssm_score_from_seq</text>
</g>
<!-- v7&#45;&gt;v8 -->
<g id="edge8" class="edge">
<title>v7&#45;&gt;v8</title>
<path fill="none" stroke="#000000" d="M453.1286,-432.2021C453.1286,-424.6027 453.1286,-407.203 453.1286,-391.8295"/>
<polygon fill="#000000" stroke="#000000" points="456.6287,-391.6553 453.1286,-381.6553 449.6287,-391.6553 456.6287,-391.6553"/>
<text text-anchor="middle" x="512.1286" y="-403.4" font-family="Times,serif" font-size="14.00" fill="#000000">pssm_score_input_ch</text>
</g>
<!-- v1 -->
<g id="node3" class="node">
<title>v1</title>
<ellipse fill="#000000" stroke="#000000" cx="949.1286" cy="-494.2" rx="3.6" ry="3.6"/>
<text text-anchor="middle" x="895.5286" y="-501.6" font-family="Times,serif" font-size="14.00" fill="#000000">Channel.fromPath</text>
</g>
<!-- v19 -->
<g id="node4" class="node">
<title>v19</title>
<ellipse fill="none" stroke="#000000" cx="1065.1286" cy="-436.1" rx="3.5" ry="3.5"/>
<text text-anchor="middle" x="1037.6286" y="-443.4" font-family="Times,serif" font-size="14.00" fill="#000000">combine</text>
</g>
<!-- v1&#45;&gt;v19 -->
<g id="edge2" class="edge">
<title>v1&#45;&gt;v19</title>
<path fill="none" stroke="#000000" d="M949.619,-490.5285C950.8165,-483.0863 954.6045,-466.2018 965.1286,-457.6 978.2422,-446.8818 1027.3334,-440.1994 1051.5065,-437.4893"/>
<polygon fill="#000000" stroke="#000000" points="1051.974,-440.9595 1061.5536,-436.4338 1051.2426,-433.9979 1051.974,-440.9595"/>
<text text-anchor="middle" x="1014.1286" y="-461.4" font-family="Times,serif" font-size="14.00" fill="#000000">tyr_pssm_dict_h5</text>
</g>
<!-- v20 -->
<g id="node22" class="node">
<title>v20</title>
<ellipse fill="none" stroke="#000000" cx="1065.1286" cy="-363.6" rx="274.0515" ry="18"/>
<text text-anchor="middle" x="1065.1286" y="-359.9" font-family="Times,serif" font-size="14.00" fill="#000000">TYR_PSSM_SCORES_FROM_SEQ:compute_tyr_pssm_score_from_seq</text>
</g>
<!-- v19&#45;&gt;v20 -->
<g id="edge21" class="edge">
<title>v19&#45;&gt;v20</title>
<path fill="none" stroke="#000000" d="M1065.1286,-432.2021C1065.1286,-424.6027 1065.1286,-407.203 1065.1286,-391.8295"/>
<polygon fill="#000000" stroke="#000000" points="1068.6287,-391.6553 1065.1286,-381.6553 1061.6287,-391.6553 1068.6287,-391.6553"/>
<text text-anchor="middle" x="1124.1286" y="-403.4" font-family="Times,serif" font-size="14.00" fill="#000000">pssm_score_input_ch</text>
</g>
<!-- v2 -->
<g id="node5" class="node">
<title>v2</title>
<ellipse fill="none" stroke="#000000" cx="807.1286" cy="-683.8" rx="246.1564" ry="18"/>
<text text-anchor="middle" x="807.1286" y="-680.1" font-family="Times,serif" font-size="14.00" fill="#000000">SER_THR_PSSM_SCORES_FROM_SEQ:get_k_p_combinations</text>
</g>
<!-- v4 -->
<g id="node6" class="node">
<title>v4</title>
<ellipse fill="none" stroke="#000000" cx="578.1286" cy="-596.8" rx="181.168" ry="18"/>
<text text-anchor="middle" x="578.1286" y="-593.1" font-family="Times,serif" font-size="14.00" fill="#000000">SER_THR_PSSM_SCORES_FROM_SEQ:split</text>
</g>
<!-- v2&#45;&gt;v4 -->
<g id="edge3" class="edge">
<title>v2&#45;&gt;v4</title>
<path fill="none" stroke="#000000" d="M760.511,-666.0894C723.8616,-652.1658 672.6903,-632.7252 633.8751,-617.9788"/>
<polygon fill="#000000" stroke="#000000" points="634.8805,-614.6167 624.2893,-614.337 632.3944,-621.1604 634.8805,-614.6167"/>
<text text-anchor="middle" x="742.1286" y="-636.6" font-family="Times,serif" font-size="14.00" fill="#000000">phosphosites</text>
</g>
<!-- v16 -->
<g id="node18" class="node">
<title>v16</title>
<ellipse fill="none" stroke="#000000" cx="1070.1286" cy="-596.8" rx="161.3716" ry="18"/>
<text text-anchor="middle" x="1070.1286" y="-593.1" font-family="Times,serif" font-size="14.00" fill="#000000">TYR_PSSM_SCORES_FROM_SEQ:split</text>
</g>
<!-- v2&#45;&gt;v16 -->
<g id="edge16" class="edge">
<title>v2&#45;&gt;v16</title>
<path fill="none" stroke="#000000" d="M860.3506,-666.1943C903.2802,-651.9932 963.7098,-632.0032 1008.6911,-617.1234"/>
<polygon fill="#000000" stroke="#000000" points="1009.9354,-620.3984 1018.3302,-613.9348 1007.7369,-613.7526 1009.9354,-620.3984"/>
<text text-anchor="middle" x="990.1286" y="-636.6" font-family="Times,serif" font-size="14.00" fill="#000000">phosphosites</text>
</g>
<!-- v5 -->
<g id="node8" class="node">
<title>v5</title>
<ellipse fill="none" stroke="#000000" cx="578.1286" cy="-538.3" rx="3.5" ry="3.5"/>
<text text-anchor="middle" x="557.6286" y="-545.6" font-family="Times,serif" font-size="14.00" fill="#000000">flatten</text>
</g>
<!-- v4&#45;&gt;v5 -->
<g id="edge5" class="edge">
<title>v4&#45;&gt;v5</title>
<path fill="none" stroke="#000000" d="M578.1286,-578.6109C578.1286,-570.1587 578.1286,-560.2613 578.1286,-552.389"/>
<polygon fill="#000000" stroke="#000000" points="581.6287,-552.1836 578.1286,-542.1837 574.6287,-552.1837 581.6287,-552.1836"/>
</g>
<!-- v3 -->
<g id="node7" class="node">
<title>v3</title>
<ellipse fill="#000000" stroke="#000000" cx="539.1286" cy="-683.8" rx="3.6" ry="3.6"/>
</g>
<!-- v3&#45;&gt;v4 -->
<g id="edge4" class="edge">
<title>v3&#45;&gt;v4</title>
<path fill="none" stroke="#000000" d="M540.6098,-680.4957C544.7177,-671.3319 556.5638,-644.9062 565.8576,-624.1737"/>
<polygon fill="#000000" stroke="#000000" points="569.1436,-625.3998 570.0404,-614.843 562.756,-622.5363 569.1436,-625.3998"/>
<text text-anchor="middle" x="564.6286" y="-636.6" font-family="Times,serif" font-size="14.00" fill="#000000">n</text>
</g>
<!-- v6 -->
<g id="node9" class="node">
<title>v6</title>
<ellipse fill="none" stroke="#000000" cx="578.1286" cy="-494.2" rx="3.5" ry="3.5"/>
<text text-anchor="middle" x="562.1286" y="-501.5" font-family="Times,serif" font-size="14.00" fill="#000000">map</text>
</g>
<!-- v5&#45;&gt;v6 -->
<g id="edge6" class="edge">
<title>v5&#45;&gt;v6</title>
<path fill="none" stroke="#000000" d="M578.1286,-534.5401C578.1286,-528.7469 578.1286,-517.344 578.1286,-508.1354"/>
<polygon fill="#000000" stroke="#000000" points="581.6287,-507.9504 578.1286,-497.9504 574.6287,-507.9505 581.6287,-507.9504"/>
</g>
<!-- v6&#45;&gt;v7 -->
<g id="edge7" class="edge">
<title>v6&#45;&gt;v7</title>
<path fill="none" stroke="#000000" d="M577.0218,-490.4978C574.5774,-482.999 567.9746,-466.0155 556.1286,-457.6 541.9253,-447.5099 491.7027,-440.5196 467.0237,-437.6117"/>
<polygon fill="#000000" stroke="#000000" points="467.0989,-434.0985 456.7726,-436.4684 466.323,-441.0554 467.0989,-434.0985"/>
<text text-anchor="middle" x="626.6286" y="-461.4" font-family="Times,serif" font-size="14.00" fill="#000000">phosphosites_chunks</text>
</g>
<!-- v9 -->
<g id="node11" class="node">
<title>v9</title>
<ellipse fill="none" stroke="#000000" cx="453.1286" cy="-305.1" rx="3.5" ry="3.5"/>
<text text-anchor="middle" x="431.1286" y="-312.4" font-family="Times,serif" font-size="14.00" fill="#000000">collect</text>
</g>
<!-- v8&#45;&gt;v9 -->
<g id="edge9" class="edge">
<title>v8&#45;&gt;v9</title>
<path fill="none" stroke="#000000" d="M453.1286,-345.4109C453.1286,-336.9587 453.1286,-327.0613 453.1286,-319.189"/>
<polygon fill="#000000" stroke="#000000" points="456.6287,-318.9836 453.1286,-308.9837 449.6287,-318.9837 456.6287,-318.9836"/>
</g>
<!-- v10 -->
<g id="node12" class="node">
<title>v10</title>
<ellipse fill="none" stroke="#000000" cx="453.1286" cy="-232.6" rx="207.9631" ry="18"/>
<text text-anchor="middle" x="453.1286" y="-228.9" font-family="Times,serif" font-size="14.00" fill="#000000">SER_THR_PSSM_SCORES_FROM_SEQ:concatenate</text>
</g>
<!-- v9&#45;&gt;v10 -->
<g id="edge10" class="edge">
<title>v9&#45;&gt;v10</title>
<path fill="none" stroke="#000000" d="M453.1286,-301.2021C453.1286,-293.6027 453.1286,-276.203 453.1286,-260.8295"/>
<polygon fill="#000000" stroke="#000000" points="456.6287,-260.6553 453.1286,-250.6553 449.6287,-260.6553 456.6287,-260.6553"/>
<text text-anchor="middle" x="548.6286" y="-272.4" font-family="Times,serif" font-size="14.00" fill="#000000">phosphosites_pssm_scores_chunks</text>
</g>
<!-- v12 -->
<g id="node13" class="node">
<title>v12</title>
<ellipse fill="none" stroke="#000000" cx="693.1286" cy="-145.6" rx="192.2659" ry="18"/>
<text text-anchor="middle" x="693.1286" y="-141.9" font-family="Times,serif" font-size="14.00" fill="#000000">SER_THR_PSSM_SCORES_FROM_SEQ:phony2</text>
</g>
<!-- v10&#45;&gt;v12 -->
<g id="edge11" class="edge">
<title>v10&#45;&gt;v12</title>
<path fill="none" stroke="#000000" d="M501.6962,-214.9943C540.3715,-200.9744 594.6113,-181.3125 635.4855,-166.4956"/>
<polygon fill="#000000" stroke="#000000" points="636.8348,-169.7294 645.0434,-163.0309 634.4492,-163.1485 636.8348,-169.7294"/>
</g>
<!-- v14 -->
<g id="node16" class="node">
<title>v14</title>
<ellipse fill="none" stroke="#000000" cx="241.1286" cy="-145.6" rx="241.2573" ry="18"/>
<text text-anchor="middle" x="241.1286" y="-141.9" font-family="Times,serif" font-size="14.00" fill="#000000">SER_THR_PSSM_SCORES_FROM_SEQ:paste_features_tables</text>
</g>
<!-- v10&#45;&gt;v14 -->
<g id="edge14" class="edge">
<title>v10&#45;&gt;v14</title>
<path fill="none" stroke="#000000" d="M409.9717,-214.8894C376.4091,-201.116 329.6911,-181.944 293.9036,-167.2577"/>
<polygon fill="#000000" stroke="#000000" points="295.1687,-163.9936 284.5886,-163.435 292.5111,-170.4695 295.1687,-163.9936"/>
<text text-anchor="middle" x="434.1286" y="-185.4" font-family="Times,serif" font-size="14.00" fill="#000000">input/k_p_pssm_scores.tsv</text>
</g>
<!-- v13 -->
<g id="node15" class="node">
<title>v13</title>
<ellipse fill="#000000" stroke="#000000" cx="683.1286" cy="-58.6" rx="1.8" ry="1.8"/>
</g>
<!-- v12&#45;&gt;v13 -->
<g id="edge13" class="edge">
<title>v12&#45;&gt;v13</title>
<path fill="none" stroke="#000000" d="M691.0566,-127.5735C689.0944,-110.502 686.2032,-85.3487 684.5083,-70.6035"/>
<polygon fill="#000000" stroke="#000000" points="687.9682,-70.0534 683.3491,-60.5185 681.014,-70.8528 687.9682,-70.0534"/>
</g>
<!-- v11 -->
<g id="node14" class="node">
<title>v11</title>
<ellipse fill="#000000" stroke="#000000" cx="693.1286" cy="-232.6" rx="3.6" ry="3.6"/>
</g>
<!-- v11&#45;&gt;v12 -->
<g id="edge12" class="edge">
<title>v11&#45;&gt;v12</title>
<path fill="none" stroke="#000000" d="M693.1286,-228.8617C693.1286,-219.445 693.1286,-194.053 693.1286,-173.7647"/>
<polygon fill="#000000" stroke="#000000" points="696.6287,-173.7321 693.1286,-163.7322 689.6287,-173.7322 696.6287,-173.7321"/>
<text text-anchor="middle" x="721.1286" y="-185.4" font-family="Times,serif" font-size="14.00" fill="#000000">outputFile</text>
</g>
<!-- v26 -->
<g id="node17" class="node">
<title>v26</title>
<ellipse fill="none" stroke="#000000" cx="960.1286" cy="-58.6" rx="257.2544" ry="18"/>
<text text-anchor="middle" x="960.1286" y="-54.9" font-family="Times,serif" font-size="14.00" fill="#000000">TYR_PSSM_SCORES_FROM_SEQ:paste_complete_features_tables</text>
</g>
<!-- v14&#45;&gt;v26 -->
<g id="edge15" class="edge">
<title>v14&#45;&gt;v26</title>
<path fill="none" stroke="#000000" d="M368.0163,-130.2464C495.0244,-114.8783 689.9147,-91.2963 821.0619,-75.4273"/>
<polygon fill="#000000" stroke="#000000" points="821.6727,-78.879 831.1798,-74.203 820.8317,-71.9297 821.6727,-78.879"/>
<text text-anchor="middle" x="704.1286" y="-98.4" font-family="Times,serif" font-size="14.00" fill="#000000">ser_thr_features_table</text>
</g>
<!-- v27 -->
<g id="node28" class="node">
<title>v27</title>
<ellipse fill="#000000" stroke="#000000" cx="960.1286" cy="-1.8" rx="1.8" ry="1.8"/>
</g>
<!-- v26&#45;&gt;v27 -->
<g id="edge28" class="edge">
<title>v26&#45;&gt;v27</title>
<path fill="none" stroke="#000000" d="M960.1286,-40.3155C960.1286,-31.6139 960.1286,-21.4551 960.1286,-13.756"/>
<polygon fill="#000000" stroke="#000000" points="963.6287,-13.6036 960.1286,-3.6036 956.6287,-13.6037 963.6287,-13.6036"/>
</g>
<!-- v17 -->
<g id="node20" class="node">
<title>v17</title>
<ellipse fill="none" stroke="#000000" cx="1070.1286" cy="-538.3" rx="3.5" ry="3.5"/>
<text text-anchor="middle" x="1049.6286" y="-545.6" font-family="Times,serif" font-size="14.00" fill="#000000">flatten</text>
</g>
<!-- v16&#45;&gt;v17 -->
<g id="edge18" class="edge">
<title>v16&#45;&gt;v17</title>
<path fill="none" stroke="#000000" d="M1070.1286,-578.6109C1070.1286,-570.1587 1070.1286,-560.2613 1070.1286,-552.389"/>
<polygon fill="#000000" stroke="#000000" points="1073.6287,-552.1836 1070.1286,-542.1837 1066.6287,-552.1837 1073.6287,-552.1836"/>
</g>
<!-- v15 -->
<g id="node19" class="node">
<title>v15</title>
<ellipse fill="#000000" stroke="#000000" cx="1075.1286" cy="-683.8" rx="3.6" ry="3.6"/>
</g>
<!-- v15&#45;&gt;v16 -->
<g id="edge17" class="edge">
<title>v15&#45;&gt;v16</title>
<path fill="none" stroke="#000000" d="M1074.9138,-680.0617C1074.3726,-670.645 1072.9133,-645.253 1071.7473,-624.9647"/>
<polygon fill="#000000" stroke="#000000" points="1075.2388,-624.7148 1071.1707,-614.9322 1068.2503,-625.1165 1075.2388,-624.7148"/>
<text text-anchor="middle" x="1076.6286" y="-636.6" font-family="Times,serif" font-size="14.00" fill="#000000">n</text>
</g>
<!-- v18 -->
<g id="node21" class="node">
<title>v18</title>
<ellipse fill="none" stroke="#000000" cx="1070.1286" cy="-494.2" rx="3.5" ry="3.5"/>
<text text-anchor="middle" x="1054.1286" y="-501.5" font-family="Times,serif" font-size="14.00" fill="#000000">map</text>
</g>
<!-- v17&#45;&gt;v18 -->
<g id="edge19" class="edge">
<title>v17&#45;&gt;v18</title>
<path fill="none" stroke="#000000" d="M1070.1286,-534.5401C1070.1286,-528.7469 1070.1286,-517.344 1070.1286,-508.1354"/>
<polygon fill="#000000" stroke="#000000" points="1073.6287,-507.9504 1070.1286,-497.9504 1066.6287,-507.9505 1073.6287,-507.9504"/>
</g>
<!-- v18&#45;&gt;v19 -->
<g id="edge20" class="edge">
<title>v18&#45;&gt;v19</title>
<path fill="none" stroke="#000000" d="M1069.8005,-490.3879C1069.1019,-482.2699 1067.438,-462.9351 1066.2969,-449.6752"/>
<polygon fill="#000000" stroke="#000000" points="1069.7832,-449.3646 1065.4385,-439.7015 1062.8089,-449.9648 1069.7832,-449.3646"/>
<text text-anchor="middle" x="1126.6286" y="-461.4" font-family="Times,serif" font-size="14.00" fill="#000000">phosphosites_chunks</text>
</g>
<!-- v21 -->
<g id="node23" class="node">
<title>v21</title>
<ellipse fill="none" stroke="#000000" cx="1065.1286" cy="-305.1" rx="3.5" ry="3.5"/>
<text text-anchor="middle" x="1043.1286" y="-312.4" font-family="Times,serif" font-size="14.00" fill="#000000">collect</text>
</g>
<!-- v20&#45;&gt;v21 -->
<g id="edge22" class="edge">
<title>v20&#45;&gt;v21</title>
<path fill="none" stroke="#000000" d="M1065.1286,-345.4109C1065.1286,-336.9587 1065.1286,-327.0613 1065.1286,-319.189"/>
<polygon fill="#000000" stroke="#000000" points="1068.6287,-318.9836 1065.1286,-308.9837 1061.6287,-318.9837 1068.6287,-318.9836"/>
</g>
<!-- v22 -->
<g id="node24" class="node">
<title>v22</title>
<ellipse fill="none" stroke="#000000" cx="1065.1286" cy="-232.6" rx="187.367" ry="18"/>
<text text-anchor="middle" x="1065.1286" y="-228.9" font-family="Times,serif" font-size="14.00" fill="#000000">TYR_PSSM_SCORES_FROM_SEQ:concatenate</text>
</g>
<!-- v21&#45;&gt;v22 -->
<g id="edge23" class="edge">
<title>v21&#45;&gt;v22</title>
<path fill="none" stroke="#000000" d="M1065.1286,-301.2021C1065.1286,-293.6027 1065.1286,-276.203 1065.1286,-260.8295"/>
<polygon fill="#000000" stroke="#000000" points="1068.6287,-260.6553 1065.1286,-250.6553 1061.6287,-260.6553 1068.6287,-260.6553"/>
<text text-anchor="middle" x="1160.6286" y="-272.4" font-family="Times,serif" font-size="14.00" fill="#000000">phosphosites_pssm_scores_chunks</text>
</g>
<!-- v22&#45;&gt;v26 -->
<g id="edge27" class="edge">
<title>v22&#45;&gt;v26</title>
<path fill="none" stroke="#000000" d="M1026.3731,-214.9617C1005.7296,-203.4244 982.0026,-186.2658 969.1286,-163.6 955.8498,-140.2214 954.8503,-109.0838 956.4083,-86.7988"/>
<polygon fill="#000000" stroke="#000000" points="959.9117,-86.9197 957.3359,-76.6428 952.9407,-86.2829 959.9117,-86.9197"/>
<text text-anchor="middle" x="1043.1286" y="-141.9" font-family="Times,serif" font-size="14.00" fill="#000000">input/k_p_pssm_scores.tsv</text>
</g>
<!-- v24 -->
<g id="node25" class="node">
<title>v24</title>
<ellipse fill="none" stroke="#000000" cx="1293.1286" cy="-145.6" rx="167.0704" ry="18"/>
<text text-anchor="middle" x="1293.1286" y="-141.9" font-family="Times,serif" font-size="14.00" fill="#000000">TYR_PSSM_SCORES_FROM_SEQ:phony</text>
</g>
<!-- v22&#45;&gt;v24 -->
<g id="edge24" class="edge">
<title>v22&#45;&gt;v24</title>
<path fill="none" stroke="#000000" d="M1110.9935,-215.0989C1147.6766,-201.1014 1199.2268,-181.431 1238.126,-166.5878"/>
<polygon fill="#000000" stroke="#000000" points="1239.6312,-169.7597 1247.7263,-162.9246 1237.1356,-163.2197 1239.6312,-169.7597"/>
</g>
<!-- v25 -->
<g id="node27" class="node">
<title>v25</title>
<ellipse fill="#000000" stroke="#000000" cx="1293.1286" cy="-58.6" rx="1.8" ry="1.8"/>
</g>
<!-- v24&#45;&gt;v25 -->
<g id="edge26" class="edge">
<title>v24&#45;&gt;v25</title>
<path fill="none" stroke="#000000" d="M1293.1286,-127.5735C1293.1286,-110.502 1293.1286,-85.3487 1293.1286,-70.6035"/>
<polygon fill="#000000" stroke="#000000" points="1296.6287,-70.5185 1293.1286,-60.5185 1289.6287,-70.5185 1296.6287,-70.5185"/>
</g>
<!-- v23 -->
<g id="node26" class="node">
<title>v23</title>
<ellipse fill="#000000" stroke="#000000" cx="1293.1286" cy="-232.6" rx="3.6" ry="3.6"/>
</g>
<!-- v23&#45;&gt;v24 -->
<g id="edge25" class="edge">
<title>v23&#45;&gt;v24</title>
<path fill="none" stroke="#000000" d="M1293.1286,-228.8617C1293.1286,-219.445 1293.1286,-194.053 1293.1286,-173.7647"/>
<polygon fill="#000000" stroke="#000000" points="1296.6287,-173.7321 1293.1286,-163.7322 1289.6287,-173.7322 1296.6287,-173.7321"/>
<text text-anchor="middle" x="1321.1286" y="-185.4" font-family="Times,serif" font-size="14.00" fill="#000000">outputFile</text>
</g>
</g>
</svg>
