<?xml version="1.0" encoding="UTF-8" standalone="no"?>
<!DOCTYPE svg PUBLIC "-//W3C//DTD SVG 1.1//EN"
 "http://www.w3.org/Graphics/SVG/1.1/DTD/svg11.dtd">
<!-- Generated by graphviz version 2.40.1 (0)
 -->
<!-- Title: flowchart Pages: 1 -->
<svg width="1248pt" height="84pt"
 viewBox="0.00 0.00 1248.27 83.60" xmlns="http://www.w3.org/2000/svg" xmlns:xlink="http://www.w3.org/1999/xlink">
<g id="graph0" class="graph" transform="scale(1 1) rotate(0) translate(4 79.6)">
<title>flowchart</title>
<polygon fill="#ffffff" stroke="transparent" points="-4,4 -4,-79.6 1244.2653,-79.6 1244.2653,4 -4,4"/>
<!-- v0 -->
<g id="node1" class="node">
<title>v0</title>
<ellipse fill="none" stroke="#000000" cx="194.9827" cy="-57.6" rx="194.9654" ry="18"/>
<text text-anchor="middle" x="194.9827" y="-53.9" font-family="Times,serif" font-size="14.00" fill="#000000">KINASE_DENDROGRAM:kinase_dendrogram_all</text>
</g>
<!-- v2 -->
<g id="node2" class="node">
<title>v2</title>
<ellipse fill="#000000" stroke="#000000" cx="183.9827" cy="-1.8" rx="1.8" ry="1.8"/>
</g>
<!-- v0&#45;&gt;v2 -->
<g id="edge1" class="edge">
<title>v0&#45;&gt;v2</title>
<path fill="none" stroke="#000000" d="M191.3809,-39.329C189.7314,-30.9617 187.8224,-21.2775 186.3567,-13.8426"/>
<polygon fill="#000000" stroke="#000000" points="189.7586,-13.003 184.3905,-3.8688 182.8908,-14.357 189.7586,-13.003"/>
</g>
<!-- v1 -->
<g id="node3" class="node">
<title>v1</title>
<ellipse fill="#000000" stroke="#000000" cx="205.9827" cy="-1.8" rx="1.8" ry="1.8"/>
</g>
<!-- v0&#45;&gt;v1 -->
<g id="edge2" class="edge">
<title>v0&#45;&gt;v1</title>
<path fill="none" stroke="#000000" d="M198.5845,-39.329C200.234,-30.9617 202.143,-21.2775 203.6087,-13.8426"/>
<polygon fill="#000000" stroke="#000000" points="207.0746,-14.357 205.5749,-3.8688 200.2068,-13.003 207.0746,-14.357"/>
</g>
<!-- v3 -->
<g id="node4" class="node">
<title>v3</title>
<ellipse fill="none" stroke="#000000" cx="618.9827" cy="-57.6" rx="210.6627" ry="18"/>
<text text-anchor="middle" x="618.9827" y="-53.9" font-family="Times,serif" font-size="14.00" fill="#000000">KINASE_DENDROGRAM:kinase_dendrogram_ser_thr</text>
</g>
<!-- v5 -->
<g id="node5" class="node">
<title>v5</title>
<ellipse fill="#000000" stroke="#000000" cx="607.9827" cy="-1.8" rx="1.8" ry="1.8"/>
</g>
<!-- v3&#45;&gt;v5 -->
<g id="edge3" class="edge">
<title>v3&#45;&gt;v5</title>
<path fill="none" stroke="#000000" d="M615.3809,-39.329C613.7314,-30.9617 611.8224,-21.2775 610.3567,-13.8426"/>
<polygon fill="#000000" stroke="#000000" points="613.7586,-13.003 608.3905,-3.8688 606.8908,-14.357 613.7586,-13.003"/>
</g>
<!-- v4 -->
<g id="node6" class="node">
<title>v4</title>
<ellipse fill="#000000" stroke="#000000" cx="629.9827" cy="-1.8" rx="1.8" ry="1.8"/>
</g>
<!-- v3&#45;&gt;v4 -->
<g id="edge4" class="edge">
<title>v3&#45;&gt;v4</title>
<path fill="none" stroke="#000000" d="M622.5845,-39.329C624.234,-30.9617 626.143,-21.2775 627.6087,-13.8426"/>
<polygon fill="#000000" stroke="#000000" points="631.0746,-14.357 629.5749,-3.8688 624.2068,-13.003 631.0746,-14.357"/>
</g>
<!-- v6 -->
<g id="node7" class="node">
<title>v6</title>
<ellipse fill="none" stroke="#000000" cx="1043.9827" cy="-57.6" rx="196.0654" ry="18"/>
<text text-anchor="middle" x="1043.9827" y="-53.9" font-family="Times,serif" font-size="14.00" fill="#000000">KINASE_DENDROGRAM:kinase_dendrogram_tyr</text>
</g>
<!-- v8 -->
<g id="node8" class="node">
<title>v8</title>
<ellipse fill="#000000" stroke="#000000" cx="1032.9827" cy="-1.8" rx="1.8" ry="1.8"/>
</g>
<!-- v6&#45;&gt;v8 -->
<g id="edge5" class="edge">
<title>v6&#45;&gt;v8</title>
<path fill="none" stroke="#000000" d="M1040.3809,-39.329C1038.7314,-30.9617 1036.8224,-21.2775 1035.3567,-13.8426"/>
<polygon fill="#000000" stroke="#000000" points="1038.7586,-13.003 1033.3905,-3.8688 1031.8908,-14.357 1038.7586,-13.003"/>
</g>
<!-- v7 -->
<g id="node9" class="node">
<title>v7</title>
<ellipse fill="#000000" stroke="#000000" cx="1054.9827" cy="-1.8" rx="1.8" ry="1.8"/>
</g>
<!-- v6&#45;&gt;v7 -->
<g id="edge6" class="edge">
<title>v6&#45;&gt;v7</title>
<path fill="none" stroke="#000000" d="M1047.5845,-39.329C1049.234,-30.9617 1051.143,-21.2775 1052.6087,-13.8426"/>
<polygon fill="#000000" stroke="#000000" points="1056.0746,-14.357 1054.5749,-3.8688 1049.2068,-13.003 1056.0746,-14.357"/>
</g>
</g>
</svg>
